<svg width="38" height="38" viewBox="0 0 38 38" fill="none" xmlns="http://www.w3.org/2000/svg">
<path d="M24.8125 13.25L19.9688 19L24.8125 24.7812C25.0625 25.0938 25.0312 25.5625 24.7188 25.8438C24.4062 26.0938 23.9375 26.0625 23.6562 25.75L19 20.1875L14.3125 25.75C14.0312 26.0625 13.5625 26.0938 13.25 25.8438C12.9375 25.5625 12.9062 25.0938 13.1562 24.7812L18 19L13.1562 13.25C12.9062 12.9375 12.9375 12.4688 13.25 12.1875C13.5625 11.9375 14.0312 11.9688 14.3125 12.2812L19 17.8438L23.6562 12.2812C23.9375 11.9688 24.4062 11.9375 24.7188 12.1875C25.0312 12.4688 25.0625 12.9375 24.8125 13.25Z" fill="#B4B4B4"/>
</svg>
