<svg width="21" height="17" viewBox="0 0 21 17" fill="none" xmlns="http://www.w3.org/2000/svg">
<path d="M18.0625 0.6875C18.375 0.90625 18.5312 1.28125 18.4688 1.65625L16.4688 14.6562C16.4375 14.9688 16.25 15.2188 15.9688 15.375C15.7188 15.5312 15.375 15.5625 15.0938 15.4375L11.375 13.875L9.21875 16.1875C8.9375 16.5 8.5 16.5938 8.125 16.4375C7.75 16.3125 7.5 15.9375 7.5 15.5V12.9062C7.5 12.7812 7.53125 12.6562 7.625 12.5625L12.8438 6.84375C13.0312 6.65625 13.0312 6.34375 12.8438 6.15625C12.6562 5.96875 12.3438 5.96875 12.1562 6.15625L5.8125 11.7812L3.03125 10.4062C2.71875 10.25 2.5 9.90625 2.5 9.53125C2.46875 9.1875 2.65625 8.84375 3 8.65625L17 0.65625C17.3125 0.46875 17.75 0.46875 18.0625 0.6875Z" fill="white"/>
</svg>
