<svg width="16" height="13" viewBox="0 0 16 13" fill="none" xmlns="http://www.w3.org/2000/svg">
<path d="M5 0.5H8.75V3.5C8.75 3.92188 9.07812 4.25 9.5 4.25H12.5V11C12.5 11.8438 11.8203 12.5 11 12.5H5C4.15625 12.5 3.5 11.8438 3.5 11V2C3.5 1.17969 4.15625 0.5 5 0.5ZM9.5 0.5L12.5 3.5H9.5V0.5ZM6.125 6.5C5.91406 6.5 5.75 6.6875 5.75 6.875C5.75 7.08594 5.91406 7.25 6.125 7.25H9.875C10.0625 7.25 10.25 7.08594 10.25 6.875C10.25 6.6875 10.0625 6.5 9.875 6.5H6.125ZM6.125 8C5.91406 8 5.75 8.1875 5.75 8.375C5.75 8.58594 5.91406 8.75 6.125 8.75H9.875C10.0625 8.75 10.25 8.58594 10.25 8.375C10.25 8.1875 10.0625 8 9.875 8H6.125ZM6.125 9.5C5.91406 9.5 5.75 9.6875 5.75 9.875C5.75 10.0859 5.91406 10.25 6.125 10.25H9.875C10.0625 10.25 10.25 10.0859 10.25 9.875C10.25 9.6875 10.0625 9.5 9.875 9.5H6.125Z" fill="white"/>
</svg>
