<svg width="19" height="18" viewBox="0 0 19 18" fill="none" xmlns="http://www.w3.org/2000/svg">
<g clip-path="url(#clip0_2728_4708)">
<path d="M18.117 9.20242C18.117 8.45992 18.0609 7.91992 17.926 7.35742H9.48828V10.6987H14.4431C14.342 11.5312 13.8027 12.7799 12.6005 13.6237L12.5892 13.7362L15.252 15.8062L15.4318 15.8287C17.1396 14.2537 18.117 11.9362 18.117 9.20242Z" fill="#4285F4"/>
<path d="M9.48883 17.9998C11.9157 17.9998 13.9493 17.2011 15.4436 15.8173L12.6123 13.6123C11.8483 14.1411 10.8371 14.5123 9.50007 14.5123C7.11818 14.5123 5.10705 12.9373 4.38799 10.7773L4.28687 10.7886L1.5005 12.9373L1.4668 13.0386C2.93863 15.9748 5.97217 17.9998 9.48883 17.9998Z" fill="#34A853"/>
<path d="M4.37619 10.7773C4.18519 10.2148 4.07284 9.61851 4.07284 8.99976C4.07284 8.38101 4.18519 7.78476 4.36496 7.22226V7.09851L1.55612 4.91602L1.46624 4.96102C0.848296 6.17601 0.5 7.54851 0.5 8.99976C0.5 10.451 0.848296 11.8235 1.455 13.0385L4.37619 10.7773Z" fill="#FBBC05"/>
<path d="M9.48835 3.47625C11.1737 3.47625 12.3197 4.2075 12.9601 4.815L15.4993 2.34C13.9375 0.88875 11.9152 0 9.48835 0C5.97169 0 2.93814 2.025 1.45508 4.96125L4.36503 7.2225C5.09533 5.05125 7.10646 3.47625 9.48835 3.47625Z" fill="#EB4335"/>
</g>
<defs>
<clipPath id="clip0_2728_4708">
<rect x="0.5" width="18" height="18" rx="9" fill="white"/>
</clipPath>
</defs>
</svg>
