<svg width="21" height="20" viewBox="0 0 21 20" fill="none" xmlns="http://www.w3.org/2000/svg">
<path d="M8.33315 0.00366592C8.32822 0.00855446 8.20984 0.0199623 8.07008 0.0297394C6.33711 0.151957 4.7587 0.73208 3.41211 1.73752C2.79883 2.19705 2.17569 2.81955 1.70545 3.4453C0.763332 4.70006 0.176359 6.2351 0.0481128 7.77993C0.0382477 7.89563 0.0218059 8.07977 0.0119408 8.18732C-0.0176545 8.4839 0.00865241 9.02654 0.0809965 9.59689C0.265145 11.0668 0.825812 12.4584 1.70709 13.63C1.97016 13.982 2.19048 14.233 2.52919 14.567C3.22796 15.2596 3.95469 15.7778 4.82282 16.1966C5.75178 16.6447 6.62978 16.8924 7.74947 17.0228C8.1079 17.0635 9.10592 17.0635 9.47586 17.0228C10.1483 16.9478 10.7024 16.8321 11.2976 16.6431C12.1098 16.384 13.0257 15.9228 13.6817 15.4437C13.7869 15.3672 13.7951 15.3639 13.8297 15.3867C13.8494 15.3998 14.4396 15.9391 15.1417 16.5828C17.8957 19.1086 18.4991 19.6611 18.5813 19.7213C18.6964 19.8093 18.9332 19.9202 19.0943 19.9641C19.2028 19.9935 19.2703 20 19.4807 20C19.775 20 19.9049 19.9723 20.1351 19.8631C20.3094 19.78 20.3998 19.7197 20.5396 19.5877C20.6793 19.4541 20.7763 19.3221 20.8618 19.1445C20.9703 18.918 20.9983 18.786 20.9999 18.5024C21.0016 18.2124 20.9703 18.069 20.8536 17.8343C20.7089 17.5426 21.0443 17.862 17.0671 14.2183C16.4242 13.6284 15.8964 13.1363 15.8964 13.1265C15.8964 13.1167 15.9556 13.0092 16.0296 12.8886C16.1973 12.6099 16.4719 12.0559 16.6001 11.7398C17.2265 10.1852 17.3844 8.49368 17.0539 6.85923C16.5771 4.49148 15.1466 2.47734 13.0487 1.21932C12.756 1.04333 12.1361 0.741858 11.8024 0.613121C10.8126 0.228546 9.79812 0.0313683 8.66199 0.00366592C8.48606 -0.00122261 8.33808 -0.00122261 8.33315 0.00366592ZM9.31966 3.0705C10.3407 3.20738 11.2828 3.60499 12.0737 4.23075C12.174 4.30896 12.3614 4.47681 12.4913 4.60229C13.2476 5.33233 13.7606 6.2074 14.0122 7.19329C14.1305 7.65608 14.1766 8.04555 14.1749 8.55397C14.1733 9.35734 14.0171 10.076 13.6866 10.7979C13.2887 11.6697 12.6245 12.4665 11.8155 13.0401C11.1184 13.5339 10.2914 13.8598 9.38543 14C9.17497 14.0326 9.08454 14.0358 8.62088 14.0358C8.15722 14.0358 8.06679 14.0326 7.85634 14C7.22004 13.9006 6.74158 13.7539 6.18749 13.4834C5.82248 13.3058 5.58243 13.1607 5.28484 12.9391C4.06979 12.0315 3.30195 10.7262 3.09643 9.22209C3.05861 8.95321 3.0471 8.3959 3.07012 8.11236C3.25263 5.97112 4.6436 4.14275 6.67253 3.37686C7.12797 3.20575 7.61793 3.09657 8.1934 3.03954C8.36275 3.02324 9.124 3.0428 9.31966 3.0705Z" fill="#5580A0"/>
</svg>
