<svg width="15" height="13" viewBox="0 0 15 13" fill="none" xmlns="http://www.w3.org/2000/svg">
<path d="M7.5 7C6.42188 7 5.4375 6.4375 4.89844 5.5C4.35938 4.58594 4.35938 3.4375 4.89844 2.5C5.4375 1.58594 6.42188 1 7.5 1C8.55469 1 9.53906 1.58594 10.0781 2.5C10.6172 3.4375 10.6172 4.58594 10.0781 5.5C9.53906 6.4375 8.55469 7 7.5 7ZM6.42188 8.125H8.55469C10.875 8.125 12.75 10 12.75 12.3203C12.75 12.6953 12.4219 13 12.0469 13H2.92969C2.55469 13 2.25 12.6953 2.25 12.3203C2.25 10 4.10156 8.125 6.42188 8.125Z" fill="black"/>
</svg>
