<svg width="62" height="62" viewBox="0 0 62 62" fill="none" xmlns="http://www.w3.org/2000/svg">
<rect width="62" height="62" rx="31" fill="#F3F4F6"/>
<path d="M27.25 26.5C27.25 27.3438 26.5469 28 25.75 28C24.9062 28 24.25 27.3438 24.25 26.5C24.25 23.2188 26.9219 20.5 30.25 20.5H31.75C35.0312 20.5 37.75 23.2188 37.75 26.5V26.6875C37.75 28.75 36.6719 30.625 34.9844 31.75L33.0156 33.0156C32.6875 33.2031 32.5 33.5781 32.5 33.9531V34C32.5 34.8438 31.7969 35.5 31 35.5C30.1562 35.5 29.5 34.8438 29.5 34V33.9531C29.5 32.5469 30.2031 31.2344 31.375 30.4844L33.3438 29.2188C34.1875 28.6562 34.75 27.7188 34.75 26.6875V26.5C34.75 24.8594 33.3906 23.5 31.75 23.5H30.25C28.5625 23.5 27.25 24.8594 27.25 26.5ZM31 41.5C30.2969 41.5 29.6875 41.1719 29.3594 40.5625C29.0312 40 29.0312 39.2969 29.3594 38.6875C29.6875 38.125 30.2969 37.75 31 37.75C31.6562 37.75 32.2656 38.125 32.5938 38.6875C32.9219 39.2969 32.9219 40 32.5938 40.5625C32.2656 41.1719 31.6562 41.5 31 41.5Z" fill="#1F2937"/>
</svg>
