<svg width="15" height="13" viewBox="0 0 15 13" fill="none" xmlns="http://www.w3.org/2000/svg">
<path d="M5.25 1C5.64844 1 6 1.35156 6 1.75V2.5H9V1.75C9 1.35156 9.32812 1 9.75 1C10.1484 1 10.5 1.35156 10.5 1.75V2.5H11.625C12.2344 2.5 12.75 3.01562 12.75 3.625V4.75H2.25V3.625C2.25 3.01562 2.74219 2.5 3.375 2.5H4.5V1.75C4.5 1.35156 4.82812 1 5.25 1ZM2.25 5.5H12.75V11.875C12.75 12.5078 12.2344 13 11.625 13H3.375C2.74219 13 2.25 12.5078 2.25 11.875V5.5ZM8.0625 10.9375V8.54688L8.97656 9.46094C9.1875 9.69531 9.53906 9.69531 9.75 9.46094C9.98438 9.25 9.98438 8.89844 9.75 8.66406L7.875 6.78906C7.66406 6.57812 7.3125 6.57812 7.10156 6.78906L5.22656 8.66406C4.99219 8.89844 4.99219 9.25 5.22656 9.46094C5.4375 9.69531 5.78906 9.69531 6 9.46094L6.91406 8.54688V10.9375C6.91406 11.2656 7.17188 11.5 7.47656 11.5C7.80469 11.5 8.03906 11.2656 8.03906 10.9375H8.0625Z" fill="black"/>
</svg>
