<svg width="21" height="17" viewBox="0 0 21 17" fill="none" xmlns="http://www.w3.org/2000/svg">
<path d="M1.25 1.25C1.25 0.84375 1.5625 0.5 2 0.5H3.40625C4.09375 0.5 4.71875 0.90625 5 1.5H17.8438C18.6562 1.5 19.25 2.28125 19.0312 3.09375L17.75 7.84375C17.5 8.84375 16.5938 9.5 15.5938 9.5H6.5625L6.75 10.4062C6.8125 10.75 7.125 11 7.46875 11H16.5C16.9062 11 17.25 11.3438 17.25 11.75C17.25 12.1875 16.9062 12.5 16.5 12.5H7.46875C6.40625 12.5 5.46875 11.75 5.28125 10.6875L3.65625 2.21875C3.625 2.09375 3.53125 2 3.40625 2H2C1.5625 2 1.25 1.6875 1.25 1.25ZM5.25 15C5.25 14.4688 5.53125 14 6 13.7188C6.4375 13.4375 7.03125 13.4375 7.5 13.7188C7.9375 14 8.25 14.4688 8.25 15C8.25 15.5625 7.9375 16.0312 7.5 16.3125C7.03125 16.5938 6.4375 16.5938 6 16.3125C5.53125 16.0312 5.25 15.5625 5.25 15ZM15.75 13.5C16.2812 13.5 16.75 13.8125 17.0312 14.25C17.3125 14.7188 17.3125 15.3125 17.0312 15.75C16.75 16.2188 16.2812 16.5 15.75 16.5C15.1875 16.5 14.7188 16.2188 14.4375 15.75C14.1562 15.3125 14.1562 14.7188 14.4375 14.25C14.7188 13.8125 15.1875 13.5 15.75 13.5Z" fill="white"/>
</svg>
