<svg width="15" height="13" viewBox="0 0 15 13" fill="none" xmlns="http://www.w3.org/2000/svg">
<path d="M2.25 2.875C2.25 2.26562 2.74219 1.75 3.375 1.77344H6.86719C7.26562 1.77344 7.64062 1.91406 7.92188 2.19531L12.0469 6.32031C12.6328 6.90625 12.6328 7.86719 12.0469 8.45312L8.92969 11.5703C8.34375 12.1562 7.38281 12.1562 6.79688 11.5703L2.67188 7.44531C2.39062 7.16406 2.25 6.78906 2.25 6.39062V2.875ZM4.875 3.625C4.45312 3.625 4.125 3.97656 4.125 4.375C4.125 4.79688 4.45312 5.125 4.875 5.125C5.27344 5.125 5.625 4.79688 5.625 4.375C5.625 3.97656 5.27344 3.625 4.875 3.625Z" fill="black"/>
</svg>
