<svg width="15" height="15" viewBox="0 0 15 15" fill="none" xmlns="http://www.w3.org/2000/svg">
<path d="M7.5 14C5.34375 14 3.375 12.875 2.29688 11C1.21875 9.14844 1.21875 6.875 2.29688 5C3.375 3.14844 5.34375 2 7.5 2C9.63281 2 11.6016 3.14844 12.6797 5C13.7578 6.875 13.7578 9.14844 12.6797 11C11.6016 12.875 9.63281 14 7.5 14ZM10.1484 6.89844H10.125C10.3594 6.6875 10.3594 6.33594 10.125 6.10156C9.91406 5.89062 9.5625 5.89062 9.35156 6.10156L6.75 8.72656L5.64844 7.625C5.41406 7.39062 5.0625 7.39062 4.85156 7.625C4.61719 7.83594 4.61719 8.1875 4.85156 8.39844L6.35156 9.89844C6.5625 10.1328 6.91406 10.1328 7.14844 9.89844L10.1484 6.89844Z" fill="#828282"/>
</svg>
