<svg width="17" height="16" viewBox="0 0 17 16" fill="none" xmlns="http://www.w3.org/2000/svg">
<path d="M8.5 1C8.9375 1 9.34375 1.25 9.5625 1.625L16.3125 13.125C16.5312 13.5312 16.5312 14 16.3125 14.375C16.0938 14.7812 15.6875 15 15.25 15H1.75C1.28125 15 0.875 14.7812 0.65625 14.375C0.4375 14 0.4375 13.5312 0.65625 13.125L7.40625 1.625C7.625 1.25 8.03125 1 8.5 1ZM8.5 5C8.0625 5 7.75 5.34375 7.75 5.75V9.25C7.75 9.6875 8.0625 10 8.5 10C8.90625 10 9.25 9.6875 9.25 9.25V5.75C9.25 5.34375 8.90625 5 8.5 5ZM9.5 12C9.5 11.4688 9.03125 11 8.5 11C7.9375 11 7.5 11.4688 7.5 12C7.5 12.5625 7.9375 13 8.5 13C9.03125 13 9.5 12.5625 9.5 12Z" fill="#B4B4B4"/>
</svg>
