<svg width="20" height="20" viewBox="0 0 20 20" fill="none" xmlns="http://www.w3.org/2000/svg">
<g clip-path="url(#clip0_3303_4917)">
<path d="M7.21875 2.5625C7.375 2.21875 7.71875 2 8.09375 2H11.875C12.25 2 12.5938 2.21875 12.75 2.5625L13 3H16C16.5312 3 17 3.46875 17 4C17 4.5625 16.5312 5 16 5H4C3.4375 5 3 4.5625 3 4C3 3.46875 3.4375 3 4 3H7L7.21875 2.5625ZM4 6H16V16C16 17.125 15.0938 18 14 18H6C4.875 18 4 17.125 4 16V6ZM7 8C6.71875 8 6.5 8.25 6.5 8.5V15.5C6.5 15.7812 6.71875 16 7 16C7.25 16 7.5 15.7812 7.5 15.5V8.5C7.5 8.25 7.25 8 7 8ZM10 8C9.71875 8 9.5 8.25 9.5 8.5V15.5C9.5 15.7812 9.71875 16 10 16C10.25 16 10.5 15.7812 10.5 15.5V8.5C10.5 8.25 10.25 8 10 8ZM13 8C12.7188 8 12.5 8.25 12.5 8.5V15.5C12.5 15.7812 12.7188 16 13 16C13.25 16 13.5 15.7812 13.5 15.5V8.5C13.5 8.25 13.25 8 13 8Z" fill="#EF4444"/>
</g>
<defs>
<clipPath id="clip0_3303_4917">
<rect width="20" height="20" rx="6" fill="white"/>
</clipPath>
</defs>
</svg>
