<svg width="21" height="17" viewBox="0 0 21 17" fill="none" xmlns="http://www.w3.org/2000/svg">
<path d="M12.9375 0.8125L13.9375 1.8125L16.9375 4.8125L17.9375 5.8125C18.3438 6.1875 18.3438 6.84375 17.9375 7.21875C17.5625 7.625 16.9062 7.625 16.5312 7.21875L16.25 6.9375L7.53125 15.625C6.96875 16.1875 6.21875 16.5 5.40625 16.5H5.25C3.59375 16.5 2.25 15.1562 2.25 13.5V13.3438C2.25 12.5312 2.5625 11.7812 3.125 11.2188L11.8125 2.53125L11.5312 2.21875C11.125 1.84375 11.125 1.1875 11.5312 0.8125C11.9062 0.40625 12.5625 0.40625 12.9375 0.8125ZM8.65625 8.5H11.8125L14.8125 5.5L13.25 3.9375L8.65625 8.5Z" fill="white"/>
</svg>
