<svg width="21" height="16" viewBox="0 0 21 16" fill="none" xmlns="http://www.w3.org/2000/svg">
<path d="M8.75 3.5V5H12.75V3.5C12.75 2.40625 11.8438 1.5 10.75 1.5C9.625 1.5 8.75 2.40625 8.75 3.5ZM7.25 5V3.5C7.25 1.59375 8.8125 0 10.75 0C12.6562 0 14.25 1.59375 14.25 3.5V5H16.25C17.0625 5 17.75 5.6875 17.75 6.5V13C17.75 14.6562 16.4062 16 14.75 16H6.75C5.09375 16 3.75 14.6562 3.75 13V6.5C3.75 5.6875 4.40625 5 5.25 5H7.25ZM8 6.5C7.5625 6.5 7.25 6.84375 7.25 7.25C7.25 7.6875 7.5625 8 8 8C8.40625 8 8.75 7.6875 8.75 7.25C8.75 6.84375 8.40625 6.5 8 6.5ZM12.75 7.25C12.75 7.6875 13.0625 8 13.5 8C13.9062 8 14.25 7.6875 14.25 7.25C14.25 6.84375 13.9062 6.5 13.5 6.5C13.0625 6.5 12.75 6.84375 12.75 7.25Z" fill="white"/>
</svg>
