<svg width="15" height="14" viewBox="0 0 15 14" fill="none" xmlns="http://www.w3.org/2000/svg">
<path d="M8.15625 1.42188L9.67969 4.53906L13.0312 5.03125C13.3125 5.07812 13.5469 5.26562 13.6406 5.54688C13.7344 5.80469 13.6641 6.10938 13.4531 6.29688L11.0156 8.71094L11.6016 12.1328C11.6484 12.4141 11.5312 12.6953 11.2969 12.8594C11.0625 13.0469 10.7578 13.0469 10.5 12.9297L7.5 11.3125L4.47656 12.9297C4.24219 13.0469 3.9375 13.0469 3.70312 12.8594C3.46875 12.6953 3.35156 12.4141 3.39844 12.1328L3.96094 8.71094L1.52344 6.29688C1.33594 6.10938 1.26562 5.80469 1.33594 5.54688C1.42969 5.26562 1.66406 5.07812 1.94531 5.03125L5.32031 4.53906L6.82031 1.42188C6.9375 1.16406 7.19531 1 7.5 1C7.78125 1 8.03906 1.16406 8.15625 1.42188Z" fill="black"/>
</svg>
